<svg width="16" height="16" viewBox="0 0 16 16" fill="none" xmlns="http://www.w3.org/2000/svg">
<path fill-rule="evenodd" clip-rule="evenodd" d="M8.00004 1.3335C4.32004 1.3335 1.33337 4.32016 1.33337 8.00016C1.33337 11.6802 4.32004 14.6668 8.00004 14.6668C11.68 14.6668 14.6667 11.6802 14.6667 8.00016C14.6667 4.32016 11.68 1.3335 8.00004 1.3335ZM2.66671 8.00017C2.66671 5.05351 5.05337 2.66684 8.00004 2.66684C9.23337 2.66684 10.3667 3.08684 11.2667 3.79351L3.79337 11.2668C3.08671 10.3668 2.66671 9.23351 2.66671 8.00017ZM4.73337 12.2068C5.63337 12.9134 6.76671 13.3334 8.00004 13.3334C10.9467 13.3334 13.3334 10.9468 13.3334 8.0001C13.3334 6.76677 12.9134 5.63343 12.2067 4.73343L4.73337 12.2068Z" fill="white"/>
</svg>
