<svg width="16" height="16" viewBox="0 0 16 16" fill="none" xmlns="http://www.w3.org/2000/svg">
<path d="M7.98004 13.2535C7.28671 13.5068 6.52004 13.1468 6.26671 12.4602C6.00004 11.7668 6.36671 11.0002 7.06004 10.7535C7.75337 10.5002 8.52004 10.8535 8.77337 11.5402C9.02671 12.2335 8.66671 13.0002 7.98004 13.2535ZM6.60004 9.50016C5.22004 10.0002 4.50671 11.5335 5.00004 12.9202C5.52004 14.3002 7.05337 15.0002 8.44004 14.5002C9.82004 14.0002 10.5267 12.4668 10.0267 11.0868C9.52004 9.70016 7.98004 9.00016 6.60004 9.50016ZM10.6267 3.0535L6.24671 4.66683L7.16671 7.16016L11.5467 5.5535L10.6267 3.0535ZM13.5467 9.08016L10.36 10.2468C10.4734 10.4402 10.5667 10.6402 10.6467 10.8535C10.7267 11.0668 10.78 11.2868 10.8134 11.5002L14 10.3335L13.5467 9.08016ZM13.0267 5.72016L7.39337 7.78683L7.72004 8.66683C8.55337 8.72683 9.33337 9.0935 9.92671 9.70016L13.9467 8.22683L13.0267 5.72016ZM1.33337 1.3335V2.66683H3.39337L5.77337 9.16683C5.96004 9.04683 6.16004 8.9535 6.37337 8.8735C6.58671 8.7935 6.80671 8.74016 7.02004 8.70683L4.33337 1.3335" fill="white"/>
</svg>
