<svg width="16" height="16" viewBox="0 0 16 16" fill="none" xmlns="http://www.w3.org/2000/svg">
<path fill-rule="evenodd" clip-rule="evenodd" d="M8.00004 4.66667H14.6667V14H1.33337V2H8.00004V4.66667ZM2.66671 12.6667H4.00004V11.3333H2.66671V12.6667ZM4.00004 10H2.66671V8.66667H4.00004V10ZM2.66671 7.33333H4.00004V6H2.66671V7.33333ZM4.00004 4.66667H2.66671V3.33333H4.00004V4.66667ZM5.33337 12.6667H6.66671V11.3333H5.33337V12.6667ZM6.66671 10H5.33337V8.66667H6.66671V10ZM5.33337 7.33333H6.66671V6H5.33337V7.33333ZM6.66671 4.66667H5.33337V3.33333H6.66671V4.66667ZM8.00004 12.6667H13.3334V6H8.00004V7.33333H9.33337V8.66667H8.00004V10H9.33337V11.3333H8.00004V12.6667ZM12 7.33333H10.6667V8.66667H12V7.33333ZM10.6667 10H12V11.3333H10.6667V10Z" fill="#B9BDC7"/>
</svg>
