<svg width="16" height="16" viewBox="0 0 16 16" fill="none" xmlns="http://www.w3.org/2000/svg">
<path fill-rule="evenodd" clip-rule="evenodd" d="M8.00004 2V4.66667H14.6667V14H1.33337V2H8.00004ZM2.66674 12.6666H4.00007V11.3333H2.66674V12.6666ZM4.00007 10.0001H2.66674V8.66673H4.00007V10.0001ZM2.66674 7.33333H4.00007V6H2.66674V7.33333ZM4.00007 4.6666H2.66674V3.33327H4.00007V4.6666ZM5.33337 12.6666H6.66671V11.3333H5.33337V12.6666ZM6.66671 10.0001H5.33337V8.66673H6.66671V10.0001ZM5.33337 7.33333H6.66671V6H5.33337V7.33333ZM6.66671 4.6666H5.33337V3.33327H6.66671V4.6666ZM8.00001 12.6667H13.3333V6H8.00001V7.33333H9.33334V8.66667H8.00001V10H9.33334V11.3333H8.00001V12.6667ZM12.0001 7.33327H10.6667V8.6666H12.0001V7.33327ZM10.6667 10H12.0001V11.3333H10.6667V10Z" fill="#188B31"/>
</svg>
