<svg width="16" height="16" viewBox="0 0 16 16" fill="none" xmlns="http://www.w3.org/2000/svg">
<circle cx="8.00004" cy="8.00016" r="6.16667" stroke="#B9BDC7"/>
<path d="M11.5 8.00016C11.5 9.76607 11.0695 11.3406 10.3997 12.457C9.72389 13.5833 8.85994 14.1668 8 14.1668C7.14006 14.1668 6.27611 13.5833 5.60032 12.457C4.9305 11.3406 4.5 9.76607 4.5 8.00016C4.5 6.23425 4.9305 4.65973 5.60032 3.54337C6.27611 2.41705 7.14006 1.8335 8 1.8335C8.85994 1.8335 9.72389 2.41705 10.3997 3.54337C11.0695 4.65973 11.5 6.23425 11.5 8.00016Z" stroke="#B9BDC7"/>
<path d="M8 2V14" stroke="#B9BDC7"/>
<path d="M2 8L14 8" stroke="#B9BDC7"/>
</svg>
