<svg width="16" height="16" viewBox="0 0 16 16" fill="none" xmlns="http://www.w3.org/2000/svg">
<path fill-rule="evenodd" clip-rule="evenodd" d="M7.99996 2.6665C6.52663 2.6665 5.33329 3.85984 5.33329 5.33317C5.33329 6.8065 6.52663 7.99984 7.99996 7.99984C9.47329 7.99984 10.6666 6.8065 10.6666 5.33317C10.6666 3.85984 9.47329 2.6665 7.99996 2.6665ZM9.33329 5.33317C9.33329 4.59984 8.73329 3.99984 7.99996 3.99984C7.26663 3.99984 6.66663 4.59984 6.66663 5.33317C6.66663 6.0665 7.26663 6.6665 7.99996 6.6665C8.73329 6.6665 9.33329 6.0665 9.33329 5.33317ZM12 11.9998C11.8666 11.5265 9.79996 10.6665 7.99996 10.6665C6.20663 10.6665 4.15329 11.5198 3.99996 11.9998H12ZM2.66663 11.9998C2.66663 10.2265 6.21996 9.33317 7.99996 9.33317C9.77996 9.33317 13.3333 10.2265 13.3333 11.9998V13.3332H2.66663V11.9998Z" fill="#B9BDC7"/>
</svg>
