<svg width="28" height="30" viewBox="0 0 28 30" fill="none" xmlns="http://www.w3.org/2000/svg">
<g filter="url(#filter0_d)">
<path d="M22.22 2.5L4.5 20.22L5.77 21.5L10.65 16.62C13.76 19.43 17.81 21 22 21C22.2652 21 22.5196 20.8946 22.7071 20.7071C22.8946 20.5196 23 20.2652 23 20V16.5C23 16.2348 22.8946 15.9804 22.7071 15.7929C22.5196 15.6054 22.2652 15.5 22 15.5C20.75 15.5 19.55 15.3 18.43 14.93C18.08 14.82 17.69 14.9 17.41 15.18L15.21 17.38C14.06 16.8 13 16.06 12.06 15.21L23.5 3.77L22.22 2.5ZM6 3C5.73478 3 5.48043 3.10536 5.29289 3.29289C5.10536 3.48043 5 3.73478 5 4C5 7.57 6.14 11.05 8.24 13.94L9.66 12.5C9.28 11.97 8.93 11.39 8.62 10.79L10.82 8.59C11.1 8.31 11.18 7.92 11.07 7.57C10.7 6.45 10.5 5.25 10.5 4C10.5 3.73478 10.3946 3.48043 10.2071 3.29289C10.0196 3.10536 9.76522 3 9.5 3H6Z" fill="#656565"/>
</g>
<defs>
<filter id="filter0_d" x="-2" y="0" width="32" height="32" filterUnits="userSpaceOnUse" color-interpolation-filters="sRGB">
<feFlood flood-opacity="0" result="BackgroundImageFix"/>
<feColorMatrix in="SourceAlpha" type="matrix" values="0 0 0 0 0 0 0 0 0 0 0 0 0 0 0 0 0 0 127 0"/>
<feOffset dy="4"/>
<feGaussianBlur stdDeviation="2"/>
<feColorMatrix type="matrix" values="0 0 0 0 0 0 0 0 0 0 0 0 0 0 0 0 0 0 0.25 0"/>
<feBlend mode="normal" in2="BackgroundImageFix" result="effect1_dropShadow"/>
<feBlend mode="normal" in="SourceGraphic" in2="effect1_dropShadow" result="shape"/>
</filter>
</defs>
</svg>
