<svg width="16" height="16" viewBox="0 0 16 16" fill="none" xmlns="http://www.w3.org/2000/svg">
<path d="M4.41333 7.1935C5.37333 9.08016 6.92 10.6268 8.80667 11.5868L10.2733 10.1202C10.46 9.9335 10.72 9.88016 10.9533 9.9535C11.7 10.2002 12.5 10.3335 13.3333 10.3335C13.5101 10.3335 13.6797 10.4037 13.8047 10.5288C13.9298 10.6538 14 10.8234 14 11.0002V13.3335C14 13.5103 13.9298 13.6799 13.8047 13.8049C13.6797 13.9299 13.5101 14.0002 13.3333 14.0002C10.3275 14.0002 7.44487 12.8061 5.31946 10.6807C3.19404 8.55529 2 5.67262 2 2.66683C2 2.2935 2.3 2.00016 2.66667 2.00016H5C5.17681 2.00016 5.34638 2.0704 5.4714 2.19542C5.59643 2.32045 5.66667 2.49002 5.66667 2.66683C5.66667 3.4935 5.8 4.30016 6.04667 5.04683C6.12 5.28016 6.06667 5.54016 5.88 5.72016L4.41333 7.1935ZM11.3333 8.00016V6.66683H12.6667V8.00016H11.3333ZM11.3333 5.3335V1.3335H12.6667V5.3335H11.3333Z" fill="white"/>
</svg>
