<svg width="16" height="16" viewBox="0 0 16 16" fill="none" xmlns="http://www.w3.org/2000/svg">
<path d="M12 12.3332C11.7347 12.3332 11.4804 12.2278 11.2929 12.0403C11.1053 11.8527 11 11.5984 11 11.3332C11 11.068 11.1053 10.8136 11.2929 10.6261C11.4804 10.4385 11.7347 10.3332 12 10.3332C12.2652 10.3332 12.5195 10.4385 12.7071 10.6261C12.8946 10.8136 13 11.068 13 11.3332C13 11.5984 12.8946 11.8527 12.7071 12.0403C12.5195 12.2278 12.2652 12.3332 12 12.3332ZM13 6.33317L14.3066 7.99984H11.3333V6.33317H13ZM3.99996 12.3332C3.73474 12.3332 3.48039 12.2278 3.29285 12.0403C3.10532 11.8527 2.99996 11.5984 2.99996 11.3332C2.99996 11.068 3.10532 10.8136 3.29285 10.6261C3.48039 10.4385 3.73474 10.3332 3.99996 10.3332C4.26518 10.3332 4.51953 10.4385 4.70707 10.6261C4.8946 10.8136 4.99996 11.068 4.99996 11.3332C4.99996 11.5984 4.8946 11.8527 4.70707 12.0403C4.51953 12.2278 4.26518 12.3332 3.99996 12.3332ZM13.3333 5.33317H11.3333V2.6665H1.99996C1.25996 2.6665 0.666626 3.25984 0.666626 3.99984V11.3332H1.99996C1.99996 11.8636 2.21067 12.3723 2.58575 12.7474C2.96082 13.1225 3.46953 13.3332 3.99996 13.3332C4.53039 13.3332 5.0391 13.1225 5.41417 12.7474C5.78925 12.3723 5.99996 11.8636 5.99996 11.3332H9.99996C9.99996 11.8636 10.2107 12.3723 10.5857 12.7474C10.9608 13.1225 11.4695 13.3332 12 13.3332C12.5304 13.3332 13.0391 13.1225 13.4142 12.7474C13.7892 12.3723 14 11.8636 14 11.3332H15.3333V7.99984L13.3333 5.33317Z" fill="white"/>
</svg>
