<svg width="48" height="6" viewBox="0 0 48 6" fill="none" xmlns="http://www.w3.org/2000/svg">
<path d="M48 3L43 5.88675L43 0.11325L48 3ZM43.5 3.5L40.5 3.5L40.5 2.5L43.5 2.5L43.5 3.5ZM37.5 3.5L34.5 3.5L34.5 2.5L37.5 2.5L37.5 3.5ZM31.5 3.5L28.5 3.50001L28.5 2.50001L31.5 2.5L31.5 3.5ZM25.5 3.50001L22.5 3.50001L22.5 2.50001L25.5 2.50001L25.5 3.50001ZM19.5 3.50001L16.5 3.50001L16.5 2.50001L19.5 2.50001L19.5 3.50001ZM13.5 3.50001L10.5 3.50001L10.5 2.50001L13.5 2.50001L13.5 3.50001ZM7.5 3.50001L4.5 3.50001L4.5 2.50001L7.5 2.50001L7.5 3.50001ZM1.5 3.50001L1.48259e-07 3.50001L-1.4826e-07 2.50001L1.5 2.50001L1.5 3.50001Z" fill="#C036A2"/>
</svg>
