<svg width="24" height="24" viewBox="0 0 24 24" fill="none" xmlns="http://www.w3.org/2000/svg">
<g id="icon/social/share_24px">
<path id="icon/social/share_24px_2" fill-rule="evenodd" clip-rule="evenodd" d="M7.10996 16.04C7.57996 16.56 7.87996 17.24 7.87996 18C7.87996 19.61 6.56996 20.92 4.95996 20.92C3.34996 20.92 2.03996 19.61 2.03996 18C2.03996 16.39 3.34996 15.08 4.95996 15.08C5.17996 15.08 5.39996 15.11 5.60996 15.16L9.76996 8.04C9.26996 7.5 8.95996 6.79 8.95996 6C8.95996 4.34 10.3 3 11.96 3C13.62 3 14.96 4.34 14.96 6C14.96 6.79 14.65 7.5 14.15 8.04L18.26 15.09C18.49 15.04 18.72 15 18.96 15C20.62 15 21.96 16.34 21.96 18C21.96 19.66 20.62 21 18.96 21C17.3 21 15.96 19.66 15.96 18C15.96 17.21 16.27 16.5 16.77 15.96L12.66 8.91C12.43 8.96 12.2 9 11.96 9C11.72 9 11.49 8.96 11.26 8.91L7.10996 16.04ZM18.96 19C19.51 19 19.96 18.55 19.96 18C19.96 17.45 19.51 17 18.96 17C18.41 17 17.96 17.45 17.96 18C17.96 18.55 18.41 19 18.96 19ZM10.96 6C10.96 5.45 11.41 5 11.96 5C12.51 5 12.96 5.45 12.96 6C12.96 6.55 12.51 7 11.96 7C11.41 7 10.96 6.55 10.96 6ZM4.93996 17C4.38996 17 3.93996 17.45 3.93996 18C3.93996 18.55 4.38996 19 4.93996 19C5.48996 19 5.93996 18.55 5.93996 18C5.93996 17.45 5.48996 17 4.93996 17Z" fill="#656565"/>
</g>
</svg>
