<svg width="20" height="18" viewBox="0 0 20 18" fill="none" xmlns="http://www.w3.org/2000/svg">
<path fill-rule="evenodd" clip-rule="evenodd" d="M14.89 13.04C14.42 13.56 14.12 14.24 14.12 15C14.12 16.61 15.43 17.92 17.04 17.92C18.65 17.92 19.96 16.61 19.96 15C19.96 13.39 18.65 12.08 17.04 12.08C16.82 12.08 16.6 12.11 16.39 12.16L12.23 5.04C12.73 4.5 13.04 3.79 13.04 3C13.04 1.34 11.7 0 10.04 0C8.38004 0 7.04004 1.34 7.04004 3C7.04004 3.79 7.35004 4.5 7.85004 5.04L3.74004 12.09C3.51004 12.04 3.28004 12 3.04004 12C1.38004 12 0.0400391 13.34 0.0400391 15C0.0400391 16.66 1.38004 18 3.04004 18C4.70004 18 6.04004 16.66 6.04004 15C6.04004 14.21 5.73004 13.5 5.23004 12.96L9.34004 5.91C9.57004 5.96 9.80004 6 10.04 6C10.28 6 10.51 5.96 10.74 5.91L14.89 13.04ZM3.04004 16C2.49004 16 2.04004 15.55 2.04004 15C2.04004 14.45 2.49004 14 3.04004 14C3.59004 14 4.04004 14.45 4.04004 15C4.04004 15.55 3.59004 16 3.04004 16ZM11.04 3C11.04 2.45 10.59 2 10.04 2C9.49004 2 9.04004 2.45 9.04004 3C9.04004 3.55 9.49004 4 10.04 4C10.59 4 11.04 3.55 11.04 3ZM17.06 14C17.61 14 18.06 14.45 18.06 15C18.06 15.55 17.61 16 17.06 16C16.51 16 16.06 15.55 16.06 15C16.06 14.45 16.51 14 17.06 14Z" fill="#00599A"/>
</svg>
