<svg width="16" height="16" viewBox="0 0 16 16" fill="none" xmlns="http://www.w3.org/2000/svg">
<circle cx="8.00016" cy="8.00065" r="6.16667" stroke="#656565"/>
<path d="M11.5 8.00065C11.5 9.76656 11.0695 11.3411 10.3997 12.4574C9.72389 13.5838 8.85994 14.1673 8 14.1673C7.14006 14.1673 6.27611 13.5838 5.60032 12.4574C4.9305 11.3411 4.5 9.76656 4.5 8.00065C4.5 6.23474 4.9305 4.66022 5.60032 3.54385C6.27611 2.41753 7.14006 1.83398 8 1.83398C8.85994 1.83398 9.72389 2.41753 10.3997 3.54385C11.0695 4.66022 11.5 6.23474 11.5 8.00065Z" stroke="#656565"/>
<path d="M8 2V14" stroke="#656565"/>
<path d="M2 8L14 8" stroke="#656565"/>
</svg>
