<svg width="16" height="16" viewBox="0 0 16 16" fill="none" xmlns="http://www.w3.org/2000/svg">
<path fill-rule="evenodd" clip-rule="evenodd" d="M7.99984 2.66602C6.5265 2.66602 5.33317 3.85935 5.33317 5.33268C5.33317 6.80602 6.5265 7.99935 7.99984 7.99935C9.47317 7.99935 10.6665 6.80602 10.6665 5.33268C10.6665 3.85935 9.47317 2.66602 7.99984 2.66602ZM9.33317 5.33268C9.33317 4.59935 8.73317 3.99935 7.99984 3.99935C7.2665 3.99935 6.6665 4.59935 6.6665 5.33268C6.6665 6.06602 7.2665 6.66602 7.99984 6.66602C8.73317 6.66602 9.33317 6.06602 9.33317 5.33268ZM11.9998 11.9993C11.8665 11.526 9.79984 10.666 7.99984 10.666C6.2065 10.666 4.15317 11.5193 3.99984 11.9993H11.9998ZM2.6665 11.9993C2.6665 10.226 6.21984 9.33268 7.99984 9.33268C9.77984 9.33268 13.3332 10.226 13.3332 11.9993V13.3327H2.6665V11.9993Z" fill="#656565"/>
</svg>
