<svg width="24" height="24" viewBox="0 0 24 24" fill="none" xmlns="http://www.w3.org/2000/svg">
<path d="M5.00002 9.5L7.50002 14H2.50002L5.00002 9.5ZM3.00002 4H7.00002V8H3.00002V4ZM5.00002 20C5.53045 20 6.03916 19.7893 6.41423 19.4142C6.7893 19.0391 7.00002 18.5304 7.00002 18C7.00002 17.4696 6.7893 16.9609 6.41423 16.5858C6.03916 16.2107 5.53045 16 5.00002 16C4.46958 16 3.96087 16.2107 3.5858 16.5858C3.21073 16.9609 3.00002 17.4696 3.00002 18C3.00002 18.5304 3.21073 19.0391 3.5858 19.4142C3.96087 19.7893 4.46958 20 5.00002 20ZM9.00002 5V7H21V5H9.00002ZM9.00002 19H21V17H9.00002V19ZM9.00002 13H21V11H9.00002V13Z" fill="white"/>
</svg>
