<svg width="24" height="24" viewBox="0 0 24 24" fill="none" xmlns="http://www.w3.org/2000/svg">
<path fill-rule="evenodd" clip-rule="evenodd" d="M12 2C8.13002 2 5.00002 5.13 5.00002 9C5.00002 14.25 12 22 12 22C12 22 19 14.25 19 9C19 5.13 15.87 2 12 2ZM7.00002 9C7.00002 6.24 9.24002 4 12 4C14.76 4 17 6.24 17 9C17 11.88 14.12 16.19 12 18.88C9.92002 16.21 7.00002 11.85 7.00002 9ZM9.50002 9C9.50002 7.61929 10.6193 6.5 12 6.5C12.8932 6.5 13.7185 6.9765 14.1651 7.75C14.6117 8.5235 14.6117 9.4765 14.1651 10.25C13.7185 11.0235 12.8932 11.5 12 11.5C10.6193 11.5 9.50002 10.3807 9.50002 9Z" fill="white"/>
</svg>
