<svg width="48" height="48" viewBox="0 0 48 48" fill="none" xmlns="http://www.w3.org/2000/svg"><path d="M22.5 10.5a9 9 0 0118 0c0 4.97-4.03 10.5-9 10.5s-9-5.53-9-10.5z" stroke="#fff" stroke-width="2" stroke-miterlimit="10" stroke-linecap="square"/><path d="M25.5 27.645a28.025 28.025 0 016-.645c4.952 0 8.889 1.281 11.486 2.476A6.016 6.016 0 0146.5 34.94V46.5h-15" stroke="#fff" stroke-width="2" stroke-miterlimit="10"/><path d="M6 24a7.5 7.5 0 1115 0c0 4.142-3.358 9-7.5 9C9.358 33 6 28.142 6 24zm19.5 19.389a4.505 4.505 0 00-2.942-4.224c-2.15-.8-5.334-1.665-9.058-1.665s-6.907.865-9.058 1.665A4.505 4.505 0 001.5 43.389V46.5h24v-3.111z" stroke="#fff" stroke-width="2" stroke-miterlimit="10" stroke-linecap="square"/></svg>