<svg width="24" height="24" viewBox="0 0 24 24" fill="none" xmlns="http://www.w3.org/2000/svg">
<path fill-rule="evenodd" clip-rule="evenodd" d="M3.75 7C3.75 6.17 4.42 5.5 5.25 5.5C6.08 5.5 6.75 6.17 6.75 7C6.75 7.83 6.08 8.5 5.25 8.5C4.42 8.5 3.75 7.83 3.75 7ZM3.75 12C3.75 11.17 4.42 10.5 5.25 10.5C6.08 10.5 6.75 11.17 6.75 12C6.75 12.83 6.08 13.5 5.25 13.5C4.42 13.5 3.75 12.83 3.75 12ZM5.25 15.5C4.42 15.5 3.75 16.18 3.75 17C3.75 17.82 4.43 18.5 5.25 18.5C6.07 18.5 6.75 17.82 6.75 17C6.75 16.18 6.08 15.5 5.25 15.5ZM20.25 18H8.25V16H20.25V18ZM8.25 13H20.25V11H8.25V13ZM8.25 8V6H20.25V8H8.25Z" fill="#00599A"/>
</svg>
