<svg width="24" height="24" viewBox="0 0 24 24" fill="none" xmlns="http://www.w3.org/2000/svg">
<path fill-rule="evenodd" clip-rule="evenodd" d="M18.1701 12C18.1701 12.272 18.1455 12.528 18.1126 12.784L19.8479 14.104C20.0042 14.224 20.0453 14.44 19.9466 14.616L18.3017 17.384C18.2277 17.512 18.0879 17.584 17.9481 17.584C17.8987 17.584 17.8494 17.576 17.8 17.56L15.7522 16.76C15.3245 17.072 14.8639 17.344 14.3622 17.544L14.0497 19.664C14.025 19.856 13.8523 20 13.6467 20H10.3569C10.1513 20 9.97861 19.856 9.95393 19.664L9.64141 17.544C9.13972 17.344 8.67915 17.08 8.25148 16.76L6.2036 17.56C6.16247 17.576 6.11313 17.584 6.06378 17.584C5.91574 17.584 5.77593 17.512 5.70191 17.384L4.05702 14.616C3.95833 14.44 3.99945 14.224 4.15571 14.104L5.89107 12.784C5.85817 12.528 5.8335 12.264 5.8335 12C5.8335 11.736 5.85817 11.472 5.89107 11.216L4.15571 9.896C3.99945 9.776 3.9501 9.56 4.05702 9.384L5.70191 6.616C5.77593 6.488 5.91574 6.416 6.05556 6.416C6.1049 6.416 6.15425 6.424 6.2036 6.44L8.25148 7.24C8.67915 6.928 9.13972 6.656 9.64141 6.456L9.95393 4.336C9.97861 4.144 10.1513 4 10.3569 4H13.6467C13.8523 4 14.025 4.144 14.0497 4.336L14.3622 6.456C14.8639 6.656 15.3245 6.92 15.7522 7.24L17.8 6.44C17.8412 6.424 17.8905 6.416 17.9399 6.416C18.0879 6.416 18.2277 6.488 18.3017 6.616L19.9466 9.384C20.0453 9.56 20.0042 9.776 19.8479 9.896L18.1126 11.216C18.1455 11.472 18.1701 11.728 18.1701 12ZM9 12C9 10.3425 10.3425 9 12 9C13.6575 9 15 10.3425 15 12C15 13.6575 13.6575 15 12 15C10.3425 15 9 13.6575 9 12Z" fill="#00599A"/>
</svg>
