<svg width="16" height="10" viewBox="0 0 16 10" fill="none" xmlns="http://www.w3.org/2000/svg">
<path fill-rule="evenodd" clip-rule="evenodd" d="M0.666748 5C1.82008 2.07333 4.66675 0 8.00008 0C11.3334 0 14.1801 2.07333 15.3334 5C14.1801 7.92667 11.3334 10 8.00008 10C4.66675 10 1.82008 7.92667 0.666748 5ZM13.8801 5C12.7801 2.75333 10.5267 1.33333 8.00006 1.33333C5.4734 1.33333 3.22006 2.75333 2.12006 5C3.22006 7.24667 5.46673 8.66667 8.00006 8.66667C10.5334 8.66667 12.7801 7.24667 13.8801 5ZM8.00008 3.33333C8.92008 3.33333 9.66675 4.08 9.66675 5C9.66675 5.92 8.92008 6.66667 8.00008 6.66667C7.08008 6.66667 6.33342 5.92 6.33342 5C6.33342 4.08 7.08008 3.33333 8.00008 3.33333ZM5.00008 5C5.00008 3.34667 6.34675 2 8.00008 2C9.65341 2 11.0001 3.34667 11.0001 5C11.0001 6.65333 9.65341 8 8.00008 8C6.34675 8 5.00008 6.65333 5.00008 5Z" fill="#00599A"/>
</svg>
