<svg width="24" height="24" viewBox="0 0 24 24" fill="none" xmlns="http://www.w3.org/2000/svg"><mask id="a" fill="#fff"><path d="M22 9.74l-7.19-.62L12 2.5 9.19 9.13 2 9.74l5.46 4.73-1.64 7.03L12 17.77l6.18 3.73-1.63-7.03L22 9.74z"/></mask><path d="M22 9.74l.983 1.133L25.66 8.55l-3.531-.304L22 9.74zm-7.19-.62l-1.38.586.352.83.9.079.128-1.495zM12 2.5l1.38-.586L12-1.341l-1.38 3.256L12 2.5zM9.19 9.13l.127 1.495.901-.077.353-.833L9.19 9.13zM2 9.74l-.127-1.495-3.542.3 2.687 2.329L2 9.74zm5.46 4.73l1.46.34.206-.88-.684-.594-.982 1.134zM5.82 21.5l-1.46-.34-.808 3.461 3.043-1.837L5.82 21.5zM12 17.77l.775-1.284-.775-.468-.775.468L12 17.77zm6.18 3.73l-.775 1.284 3.038 1.834-.802-3.457-1.461.339zm-1.63-7.03l-.983-1.133-.682.592.204.88 1.461-.339zm5.579-6.224l-7.19-.62-.258 2.988 7.19.62.258-2.988zm-5.938.288l-2.81-6.62-2.762 1.172 2.81 6.62 2.762-1.172zm-5.572-6.62l-2.81 6.63 2.762 1.171 2.81-6.63-2.762-1.17zM9.063 7.636l-7.19.61.254 2.99 7.19-.61-.254-2.99zm-8.045 3.239l5.46 4.73 1.964-2.268-5.46-4.73-1.964 2.268zm4.981 3.255l-1.64 7.03 2.922.682 1.64-7.03-2.922-.682zm.596 8.655l6.18-3.73-1.55-2.568-6.18 3.73 1.55 2.568zm4.63-3.73l6.18 3.73 1.55-2.568-6.18-3.73-1.55 2.568zm8.416 2.107l-1.63-7.03-2.922.678 1.63 7.03 2.922-.678zm-2.108-5.558l5.45-4.73-1.966-2.266-5.45 4.73 1.966 2.266z" fill="#B9BDC7" mask="url(#a)"/></svg>