<svg width="10" height="14" viewBox="0 0 10 14" fill="none" xmlns="http://www.w3.org/2000/svg">
<path fill-rule="evenodd" clip-rule="evenodd" d="M5.00001 0.333336C2.42001 0.333336 0.333344 2.42 0.333344 5C0.333344 8.5 5.00001 13.6667 5.00001 13.6667C5.00001 13.6667 9.66668 8.5 9.66668 5C9.66668 2.42 7.58001 0.333336 5.00001 0.333336ZM1.66668 5C1.66668 3.16 3.16001 1.66667 5.00001 1.66667C6.84001 1.66667 8.33334 3.16 8.33334 5C8.33334 6.92 6.41334 9.79334 5.00001 11.5867C3.61334 9.80667 1.66668 6.9 1.66668 5ZM3.33334 5C3.33334 4.07953 4.07954 3.33334 5.00001 3.33334C5.59545 3.33334 6.14566 3.651 6.44339 4.16667C6.74111 4.68234 6.74111 5.31767 6.44339 5.83334C6.14566 6.349 5.59545 6.66667 5.00001 6.66667C4.07954 6.66667 3.33334 5.92048 3.33334 5Z" fill="#242021"/>
</svg>
