<svg width="24" height="24" viewBox="0 0 24 24" fill="none" xmlns="http://www.w3.org/2000/svg">
<g id="icon/toggle/star_outline_24px">
<g id="icon/toggle/star_outline_24px_2">
<mask id="path-2-inside-1" fill="white">
<path d="M22 9.74L14.81 9.12L12 2.5L9.19 9.13L2 9.74L7.46 14.47L5.82 21.5L12 17.77L18.18 21.5L16.55 14.47L22 9.74Z"/>
</mask>
<path d="M22 9.74L22.9832 10.8728L25.6596 8.55L22.1289 8.24555L22 9.74ZM14.81 9.12L13.4292 9.70609L13.7819 10.5369L14.6811 10.6145L14.81 9.12ZM12 2.5L13.3808 1.91391L11.999 -1.34144L10.6189 1.91466L12 2.5ZM9.19 9.13L9.3168 10.6246L10.2181 10.5482L10.5711 9.71534L9.19 9.13ZM2 9.74L1.8732 8.24537L-1.66925 8.54591L1.01784 10.8737L2 9.74ZM7.46 14.47L8.92078 14.8108L9.12647 13.9291L8.44216 13.3363L7.46 14.47ZM5.82 21.5L4.35922 21.1592L3.5516 24.6212L6.5951 22.7842L5.82 21.5ZM12 17.77L12.7751 16.4858L12 16.018L11.2249 16.4858L12 17.77ZM18.18 21.5L17.4049 22.7842L20.4427 24.6177L19.6412 21.1612L18.18 21.5ZM16.55 14.47L15.5668 13.3372L14.8848 13.9291L15.0888 14.8088L16.55 14.47ZM22.1289 8.24555L14.9389 7.62555L14.6811 10.6145L21.8711 11.2345L22.1289 8.24555ZM16.1908 8.53391L13.3808 1.91391L10.6192 3.08609L13.4292 9.70609L16.1908 8.53391ZM10.6189 1.91466L7.80892 8.54466L10.5711 9.71534L13.3811 3.08534L10.6189 1.91466ZM9.0632 7.63537L1.8732 8.24537L2.1268 11.2346L9.3168 10.6246L9.0632 7.63537ZM1.01784 10.8737L6.47784 15.6037L8.44216 13.3363L2.98216 8.60626L1.01784 10.8737ZM5.99922 14.1292L4.35922 21.1592L7.28078 21.8408L8.92078 14.8108L5.99922 14.1292ZM6.5951 22.7842L12.7751 19.0542L11.2249 16.4858L5.0449 20.2158L6.5951 22.7842ZM11.2249 19.0542L17.4049 22.7842L18.9551 20.2158L12.7751 16.4858L11.2249 19.0542ZM19.6412 21.1612L18.0112 14.1312L15.0888 14.8088L16.7188 21.8388L19.6412 21.1612ZM17.5332 15.6028L22.9832 10.8728L21.0168 8.60715L15.5668 13.3372L17.5332 15.6028Z" fill="#B9BDC7" mask="url(#path-2-inside-1)"/>
</g>
</g>
</svg>
