<svg width="7" height="40" viewBox="0 0 7 40" fill="none" xmlns="http://www.w3.org/2000/svg">
<path d="M3.65234 40L6.53909 35L0.765591 35L3.65234 40ZM3.15234 -2.213e-08L3.15234 1.42857L4.15234 1.42857L4.15234 2.213e-08L3.15234 -2.213e-08ZM3.15234 4.28571L3.15234 7.14286L4.15234 7.14286L4.15234 4.28571L3.15234 4.28571ZM3.15234 10L3.15234 12.8571L4.15234 12.8571L4.15234 10L3.15234 10ZM3.15234 15.7143L3.15234 18.5714L4.15234 18.5714L4.15234 15.7143L3.15234 15.7143ZM3.15234 21.4286L3.15234 24.2857L4.15234 24.2857L4.15234 21.4286L3.15234 21.4286ZM3.15234 27.1429L3.15234 30L4.15234 30L4.15234 27.1429L3.15234 27.1429ZM3.15234 32.8571L3.15234 35.7143L4.15234 35.7143L4.15234 32.8571L3.15234 32.8571Z" fill="#188B31"/>
</svg>
