<svg width="189" height="25" viewBox="0 0 189 25" fill="none" xmlns="http://www.w3.org/2000/svg"><path d="M93.239 7v-.5.5zM189 7l-5-2.887v5.774L189 7zM0 7.5h93.239v-1H0v1zm93.239 0H184.5v-1H93.239v1z" fill="#00599A"/><path d="M93.239 18v-.5.5zM189 18l-5-2.887v5.774L189 18zM0 18.5h93.239v-1H0v1zm93.239 0H184.5v-1H93.239v1z" fill="#C036A2"/><path fill="#F2F2F2" d="M80 0h29v14H80z"/><path d="M85.766 6.369c1.1 0 1.907.209 2.42.627.52.41.781.975.781 1.694 0 .455-.11.865-.33 1.232-.213.36-.539.645-.979.858-.433.205-.968.308-1.606.308-.543 0-1.067-.08-1.573-.242-.506-.169-.924-.4-1.254-.693l.506-.869c.264.25.601.451 1.012.605.41.147.843.22 1.298.22.58 0 1.027-.121 1.342-.363.323-.25.484-.587.484-1.012 0-.462-.176-.81-.528-1.045-.352-.242-.953-.363-1.804-.363h-1.749l.407-4.026h4.345v.957h-3.42l-.21 2.112h.858zm7.262 4.719a2.934 2.934 0 01-1.628-.462c-.469-.315-.84-.77-1.11-1.364-.272-.594-.408-1.298-.408-2.112 0-.814.136-1.518.407-2.112.272-.594.642-1.045 1.111-1.353a2.884 2.884 0 011.628-.473c.602 0 1.137.158 1.606.473.477.308.851.759 1.123 1.353.27.594.406 1.298.406 2.112 0 .814-.135 1.518-.406 2.112-.272.594-.646 1.049-1.123 1.364a2.861 2.861 0 01-1.606.462zm0-.979c.616 0 1.108-.253 1.474-.759.374-.506.562-1.24.562-2.2 0-.96-.188-1.694-.561-2.2-.367-.506-.859-.759-1.475-.759-.623 0-1.122.253-1.496.759-.366.506-.55 1.24-.55 2.2 0 .96.184 1.694.55 2.2.374.506.873.759 1.496.759zm5.863-2.673c-.535 0-.968-.194-1.298-.583-.33-.389-.495-.895-.495-1.518s.165-1.13.495-1.518c.33-.389.763-.583 1.298-.583.536 0 .965.194 1.287.583.33.381.495.887.495 1.518 0 .63-.165 1.14-.495 1.529-.322.381-.751.572-1.287.572zm4.642-4.136h.847L99.122 11h-.847l5.258-7.7zm-4.642 3.509c.338 0 .602-.128.792-.385.191-.264.286-.627.286-1.089 0-.462-.095-.821-.286-1.078a.923.923 0 00-.792-.396.94.94 0 00-.792.396c-.19.264-.286.623-.286 1.078 0 .455.096.814.286 1.078a.94.94 0 00.792.396zm4.873 4.257c-.535 0-.968-.19-1.298-.572-.322-.389-.484-.898-.484-1.529 0-.63.162-1.137.484-1.518.33-.389.763-.583 1.298-.583.536 0 .968.194 1.298.583.33.389.495.895.495 1.518s-.165 1.13-.495 1.518c-.33.389-.762.583-1.298.583zm0-.627c.33 0 .591-.132.781-.396.198-.264.297-.623.297-1.078 0-.455-.099-.814-.297-1.078a.911.911 0 00-.781-.396.924.924 0 00-.792.396c-.19.257-.286.616-.286 1.078 0 .462.096.825.286 1.089.191.257.455.385.792.385z" fill="#00599A"/><path fill="#F2F2F2" d="M29 11h131v14H29z"/><path d="M42.206 17.49c0 .927-.323 1.653-.97 2.18-.646.527-1.56.81-2.74.85v.74h-.93v-.74c-1.18-.047-2.096-.333-2.75-.86-.646-.527-.97-1.25-.97-2.17 0-.927.324-1.653.97-2.18.654-.527 1.57-.813 2.75-.86v-.71h.93v.71c1.174.047 2.084.337 2.73.87.654.527.98 1.25.98 2.17zm-3.71 2.25c.894-.053 1.574-.27 2.04-.65.474-.387.71-.923.71-1.61 0-.673-.24-1.2-.72-1.58-.473-.387-1.15-.607-2.03-.66v4.5zm-3.68-2.25c0 .68.237 1.213.71 1.6.48.38 1.16.597 2.04.65v-4.5c-.893.053-1.576.27-2.05.65-.466.38-.7.913-.7 1.6zm8.768-1.79h.96v3.86l3.25-3.86h.87V21h-.96v-3.86L44.464 21h-.88v-5.3zm6.944 0h.96v2.25h3.02V15.7h.96V21h-.96v-2.22h-3.02V21h-.96v-5.3zm8.696-.05c.734 0 1.294.18 1.68.54.394.36.59.897.59 1.61V21h-.91v-.7a1.54 1.54 0 01-.69.57c-.293.127-.643.19-1.05.19-.593 0-1.07-.143-1.43-.43a1.385 1.385 0 01-.53-1.13c0-.467.17-.84.51-1.12.34-.287.88-.43 1.62-.43h1.52v-.19c0-.413-.12-.73-.36-.95-.24-.22-.593-.33-1.06-.33-.313 0-.62.053-.92.16-.3.1-.553.237-.76.41l-.4-.72c.274-.22.6-.387.98-.5.38-.12.784-.18 1.21-.18zm-.22 4.67c.367 0 .684-.08.95-.24.267-.167.46-.4.58-.7v-.74h-1.48c-.813 0-1.22.273-1.22.82 0 .267.104.477.31.63.207.153.494.23.86.23zm4.219-4.62h.96v2.25h3.02V15.7h.96V21h-.96v-2.22h-3.02V21h-.96v-5.3zm9.117 5.36c-.54 0-1.024-.117-1.45-.35a2.585 2.585 0 01-.99-.96c-.24-.413-.36-.88-.36-1.4 0-.52.12-.983.36-1.39.24-.413.57-.733.99-.96.426-.233.91-.35 1.45-.35.48 0 .906.097 1.28.29.38.193.673.473.88.84l-.73.47a1.631 1.631 0 00-.62-.57 1.768 1.768 0 00-.82-.19c-.347 0-.66.077-.94.23-.274.153-.49.373-.65.66-.154.28-.23.603-.23.97 0 .373.076.703.23.99.16.28.376.497.65.65.28.153.593.23.94.23.3 0 .573-.063.82-.19.246-.127.453-.317.62-.57l.73.46c-.207.367-.5.65-.88.85-.374.193-.8.29-1.28.29zm5.594 0c-.526 0-1-.117-1.42-.35a2.585 2.585 0 01-.99-.96 2.797 2.797 0 01-.35-1.4c0-.52.117-.983.35-1.39.24-.413.57-.733.99-.96a2.88 2.88 0 011.42-.35c.527 0 .997.117 1.41.35.42.227.747.547.98.96.24.407.36.87.36 1.39 0 .52-.12.987-.36 1.4-.233.407-.56.727-.98.96a2.82 2.82 0 01-1.41.35zm0-.84c.34 0 .644-.077.91-.23.274-.16.487-.38.64-.66.154-.287.23-.613.23-.98s-.076-.69-.23-.97a1.608 1.608 0 00-.64-.66 1.793 1.793 0 00-.91-.23c-.34 0-.646.077-.92.23-.266.153-.48.373-.64.66-.153.28-.23.603-.23.97s.077.693.23.98c.16.28.374.5.64.66.274.153.58.23.92.23zm7.747-1.97c.686.173 1.03.603 1.03 1.29 0 .467-.177.827-.53 1.08-.347.253-.867.38-1.56.38h-2.55v-5.3h2.46c.626 0 1.116.12 1.47.36.353.233.53.567.53 1 0 .28-.077.523-.23.73a1.39 1.39 0 01-.62.46zm-2.67-.27h1.44c.366 0 .643-.067.83-.2a.66.66 0 00.29-.58c0-.507-.374-.76-1.12-.76h-1.44v1.54zm1.54 2.28c.4 0 .7-.063.9-.19.2-.127.3-.323.3-.59 0-.273-.094-.477-.28-.61-.18-.133-.467-.2-.86-.2h-1.6v1.59h1.54zm6.052-2.76c.667.007 1.177.16 1.53.46.354.3.53.723.53 1.27 0 .573-.193 1.017-.58 1.33-.38.307-.927.457-1.64.45l-2.23-.01v-5.3h.96v1.79l1.43.01zm2.85-1.8h.96V21h-.96v-5.3zm-3.08 4.58c.433.007.76-.08.98-.26.227-.18.34-.447.34-.8 0-.347-.11-.6-.33-.76-.22-.16-.55-.243-.99-.25l-1.2-.02v2.08l1.2.01zm5.907-4.58h.96v3.86l3.25-3.86h.87V21h-.96v-3.86L97.16 21h-.88v-5.3zm2.48-.69c-.494 0-.877-.117-1.15-.35-.274-.24-.414-.583-.42-1.03h.65c.006.247.09.447.25.6.166.147.386.22.66.22.273 0 .493-.073.66-.22a.809.809 0 00.26-.6h.67c-.007.447-.15.79-.43 1.03-.28.233-.664.35-1.15.35zm12.539 5.15v2.07h-.9V21h-4.43v1.23h-.91v-2.07h.28c.34-.02.573-.26.7-.72.126-.46.213-1.11.26-1.95l.08-1.79h4.11v4.46h.81zm-4.12-2.6a11.25 11.25 0 01-.17 1.66c-.08.433-.23.747-.45.94h2.97v-3.62h-2.3l-.05 1.02zm5.37-1.86h.96v3.86l3.25-3.86h.87V21h-.96v-3.86l-3.24 3.86h-.88v-5.3zm9.754-.05c.513 0 .973.113 1.38.34.406.227.723.543.95.95.233.407.35.877.35 1.41 0 .533-.117 1.007-.35 1.42a2.418 2.418 0 01-.95.95c-.407.227-.867.34-1.38.34-.38 0-.73-.073-1.05-.22a2.18 2.18 0 01-.8-.64v2.74h-.96V15.7h.92v.84a2 2 0 01.81-.66 2.51 2.51 0 011.08-.23zm-.08 4.57c.34 0 .643-.077.91-.23a1.7 1.7 0 00.64-.66c.16-.287.24-.613.24-.98s-.08-.69-.24-.97a1.613 1.613 0 00-.64-.66 1.794 1.794 0 00-.91-.23c-.334 0-.637.08-.91.24a1.71 1.71 0 00-.64.65 1.98 1.98 0 00-.23.97c0 .367.076.693.23.98.153.28.366.5.64.66.273.153.576.23.91.23zm8.944-1.84c0 .073-.006.17-.02.29h-4.3c.06.467.264.843.61 1.13.354.28.79.42 1.31.42.634 0 1.144-.213 1.53-.64l.53.62c-.24.28-.54.493-.9.64a3.07 3.07 0 01-1.19.22c-.56 0-1.056-.113-1.49-.34a2.53 2.53 0 01-1.01-.97 2.801 2.801 0 01-.35-1.4c0-.513.114-.977.34-1.39a2.49 2.49 0 01.95-.96c.407-.233.864-.35 1.37-.35.507 0 .957.117 1.35.35.4.227.71.547.93.96.227.413.34.887.34 1.42zm-2.62-1.92c-.46 0-.846.14-1.16.42-.306.28-.486.647-.54 1.1h3.4a1.67 1.67 0 00-.55-1.09c-.306-.287-.69-.43-1.15-.43zm6.17 2.3h-1.1V21h-.96v-5.3h.96v2.24h1.12l1.72-2.24h1.03l-2.01 2.55 2.15 2.75h-1.13l-1.78-2.24zm7.778-2.22h-1.94V21h-.96v-4.46h-1.94v-.84h4.84v.84zm3.018 4.52c-.527 0-1-.117-1.42-.35a2.585 2.585 0 01-.99-.96 2.79 2.79 0 01-.35-1.4c0-.52.116-.983.35-1.39.24-.413.57-.733.99-.96.42-.233.893-.35 1.42-.35.526 0 .996.117 1.41.35.42.227.746.547.98.96.24.407.36.87.36 1.39 0 .52-.12.987-.36 1.4-.234.407-.56.727-.98.96-.414.233-.884.35-1.41.35zm0-.84c.34 0 .643-.077.91-.23a1.7 1.7 0 00.64-.66 2.05 2.05 0 00.23-.98c0-.367-.077-.69-.23-.97a1.613 1.613 0 00-.64-.66 1.794 1.794 0 00-.91-.23c-.34 0-.647.077-.92.23-.267.153-.48.373-.64.66a1.98 1.98 0 00-.23.97c0 .367.076.693.23.98.16.28.373.5.64.66.273.153.58.23.92.23zm6.946-4.57c.513 0 .973.113 1.38.34.406.227.723.543.95.95.233.407.35.877.35 1.41 0 .533-.117 1.007-.35 1.42a2.418 2.418 0 01-.95.95c-.407.227-.867.34-1.38.34-.38 0-.73-.073-1.05-.22a2.18 2.18 0 01-.8-.64v2.74h-.96V15.7h.92v.84a2 2 0 01.81-.66 2.51 2.51 0 011.08-.23zm-.08 4.57c.34 0 .643-.077.91-.23a1.7 1.7 0 00.64-.66c.16-.287.24-.613.24-.98s-.08-.69-.24-.97a1.613 1.613 0 00-.64-.66 1.794 1.794 0 00-.91-.23c-.334 0-.637.08-.91.24a1.71 1.71 0 00-.64.65 1.98 1.98 0 00-.23.97c0 .367.076.693.23.98.153.28.366.5.64.66.273.153.576.23.91.23z" fill="#C036A2"/></svg>