<svg width="16" height="16" viewBox="0 0 16 16" fill="none" xmlns="http://www.w3.org/2000/svg"><path d="M7.98 13.254a1.34 1.34 0 01-1.713-.794c-.267-.693.1-1.46.793-1.707.693-.253 1.46.1 1.713.787a1.34 1.34 0 01-.793 1.714zM6.6 9.5A2.682 2.682 0 005 12.92a2.696 2.696 0 003.44 1.58 2.664 2.664 0 001.587-3.413A2.676 2.676 0 006.6 9.5zm4.027-6.447l-4.38 1.614.92 2.493 4.38-1.607-.92-2.5zm2.92 6.027l-3.187 1.167c.113.193.207.393.287.607a3.3 3.3 0 01.166.646L14 10.334l-.453-1.254zm-.52-3.36L7.393 7.787l.327.88c.833.06 1.613.427 2.207 1.033l4.02-1.473-.92-2.507zM1.333 1.334v1.333h2.06l2.38 6.5a3.297 3.297 0 011.247-.46L4.333 1.333" fill="#fff"/></svg>