<svg width="16" height="16" viewBox="0 0 16 16" fill="none" xmlns="http://www.w3.org/2000/svg"><path fill-rule="evenodd" clip-rule="evenodd" d="M8 4.667h6.667V14H1.333V2H8v2.667zm-5.333 8H4v-1.334H2.667v1.334zM4 10H2.667V8.667H4V10zM2.667 7.333H4V6H2.667v1.333zM4 4.667H2.667V3.333H4v1.334zm1.333 8h1.334v-1.334H5.333v1.334zM6.667 10H5.333V8.667h1.334V10zM5.333 7.333h1.334V6H5.333v1.333zm1.334-2.666H5.333V3.333h1.334v1.334zm1.333 8h5.333V6H8v1.333h1.333v1.334H8V10h1.333v1.333H8v1.334zm4-5.334h-1.333v1.334H12V7.333zM10.667 10H12v1.333h-1.333V10z" fill="#B9BDC7"/></svg>