<svg width="28" height="30" viewBox="0 0 28 30" fill="none" xmlns="http://www.w3.org/2000/svg"><g filter="url(#filter0_d)"><path d="M22.22 2.5L4.5 20.22l1.27 1.28 4.88-4.88C13.76 19.43 17.81 21 22 21a1 1 0 001-1v-3.5a1 1 0 00-1-1c-1.25 0-2.45-.2-3.57-.57-.35-.11-.74-.03-1.02.25l-2.2 2.2c-1.15-.58-2.21-1.32-3.15-2.17L23.5 3.77 22.22 2.5zM6 3a1 1 0 00-1 1c0 3.57 1.14 7.05 3.24 9.94l1.42-1.44a13.9 13.9 0 01-1.04-1.71l2.2-2.2c.28-.28.36-.67.25-1.02A11.36 11.36 0 0110.5 4a1 1 0 00-1-1H6z" fill="#656565"/></g><defs><filter id="filter0_d" x="-2" y="0" width="32" height="32" filterUnits="userSpaceOnUse" color-interpolation-filters="sRGB"><feFlood flood-opacity="0" result="BackgroundImageFix"/><feColorMatrix in="SourceAlpha" values="0 0 0 0 0 0 0 0 0 0 0 0 0 0 0 0 0 0 127 0"/><feOffset dy="4"/><feGaussianBlur stdDeviation="2"/><feColorMatrix values="0 0 0 0 0 0 0 0 0 0 0 0 0 0 0 0 0 0 0.25 0"/><feBlend in2="BackgroundImageFix" result="effect1_dropShadow"/><feBlend in="SourceGraphic" in2="effect1_dropShadow" result="shape"/></filter></defs></svg>