<svg width="48" height="48" viewBox="0 0 48 48" fill="none" xmlns="http://www.w3.org/2000/svg">
<path d="M29.0084 20.2539L35.5094 32.9132" stroke="white" stroke-width="2" stroke-miterlimit="10"/>
<path d="M12.4906 32.9132L18.9916 20.2539" stroke="white" stroke-width="2" stroke-miterlimit="10"/>
<path d="M17.25 10.5C17.25 14.2279 20.2721 17.25 24 17.25C27.7279 17.25 30.75 14.2279 30.75 10.5C30.75 6.77208 27.7279 3.75 24 3.75C20.2721 3.75 17.25 6.77208 17.25 10.5Z" stroke="white" stroke-width="2" stroke-miterlimit="10" stroke-linecap="square"/>
<path d="M32.25 38.25C32.25 41.5637 34.9363 44.25 38.25 44.25C41.5637 44.25 44.25 41.5637 44.25 38.25C44.25 34.9363 41.5637 32.25 38.25 32.25C34.9363 32.25 32.25 34.9363 32.25 38.25Z" stroke="white" stroke-width="2" stroke-miterlimit="10" stroke-linecap="square"/>
<path d="M3.75 38.25C3.75 41.5637 6.43629 44.25 9.75 44.25C13.0637 44.25 15.75 41.5637 15.75 38.25C15.75 34.9363 13.0637 32.25 9.75 32.25C6.43629 32.25 3.75 34.9363 3.75 38.25Z" stroke="white" stroke-width="2" stroke-miterlimit="10" stroke-linecap="square"/>
</svg>
