<svg width="48" height="48" viewBox="0 0 48 48" fill="none" xmlns="http://www.w3.org/2000/svg">
<path d="M22.5 10.5C22.5 5.52975 26.5298 1.5 31.5 1.5C36.4702 1.5 40.5 5.52975 40.5 10.5C40.5 15.4702 36.4702 21 31.5 21C26.5298 21 22.5 15.4702 22.5 10.5Z" stroke="white" stroke-width="2" stroke-miterlimit="10" stroke-linecap="square"/>
<path d="M25.5 27.645C27.2783 27.2558 29.2875 27 31.5 27C36.4515 27 40.389 28.281 42.9855 29.4757C45.1245 30.4605 46.5 32.5853 46.5 34.9403V46.5H31.5" stroke="white" stroke-width="2" stroke-miterlimit="10"/>
<path d="M6 24C6 19.8578 9.35775 16.5 13.5 16.5C17.6422 16.5 21 19.8578 21 24C21 28.1422 17.6422 33 13.5 33C9.35775 33 6 28.1422 6 24Z" stroke="white" stroke-width="2" stroke-miterlimit="10" stroke-linecap="square"/>
<path d="M25.5 43.389C25.5 41.502 24.327 39.8235 22.5577 39.165C20.4075 38.3648 17.2238 37.5 13.5 37.5C9.77625 37.5 6.5925 38.3648 4.44225 39.165C2.673 39.8235 1.5 41.502 1.5 43.389V46.5H25.5V43.389Z" stroke="white" stroke-width="2" stroke-miterlimit="10" stroke-linecap="square"/>
</svg>
