<svg width="48" height="48" viewBox="0 0 48 48" fill="none" xmlns="http://www.w3.org/2000/svg">
<path d="M24 1.5C11.55 1.5 1.5 11.55 1.5 24C1.5 36.45 11.55 46.5 24 46.5C36.45 46.5 46.5 36.45 46.5 24C46.5 11.55 36.45 1.5 24 1.5ZM7.5 24C7.5 14.925 14.925 7.5 24 7.5C27.45 7.5 30.675 8.55 33.375 10.425L10.425 33.375C8.55 30.675 7.5 27.45 7.5 24ZM24 40.5C20.55 40.5 17.325 39.45 14.625 37.575L37.575 14.625C39.45 17.325 40.5 20.55 40.5 24C40.5 33.075 33.075 40.5 24 40.5Z" stroke="white" stroke-width="2" stroke-miterlimit="10" stroke-linecap="square"/>
</svg>
