<svg width="24" height="24" viewBox="0 0 24 24" fill="none" xmlns="http://www.w3.org/2000/svg"><path fill-rule="evenodd" clip-rule="evenodd" d="M18.17 12c0 .272-.025.528-.057.784l1.735 1.32c.156.12.197.336.099.512l-1.645 2.768a.41.41 0 01-.354.2.478.478 0 01-.148-.024l-2.048-.8a6.365 6.365 0 01-1.39.784l-.312 2.12a.398.398 0 01-.403.336h-3.29a.398.398 0 01-.403-.336l-.313-2.12a6.052 6.052 0 01-1.39-.784l-2.047.8a.394.394 0 01-.14.024.413.413 0 01-.362-.2l-1.645-2.768a.396.396 0 01.099-.512l1.735-1.32A6.174 6.174 0 015.833 12c0-.264.025-.528.058-.784l-1.735-1.32a.387.387 0 01-.099-.512l1.645-2.768a.41.41 0 01.354-.2c.049 0 .098.008.148.024l2.047.8a6.364 6.364 0 011.39-.784l.313-2.12A.398.398 0 0110.357 4h3.29c.205 0 .378.144.403.336l.312 2.12c.502.2.963.464 1.39.784l2.048-.8a.394.394 0 01.14-.024c.148 0 .288.072.362.2l1.645 2.768a.396.396 0 01-.1.512l-1.734 1.32c.032.256.057.512.057.784zM9 12a3 3 0 116 0 3 3 0 11-6 0z" fill="#00599A"/></svg>