<svg width="24" height="24" viewBox="0 0 24 24" fill="none" xmlns="http://www.w3.org/2000/svg"><path fill-rule="evenodd" clip-rule="evenodd" d="M7.11 16.04c.47.52.77 1.2.77 1.96 0 1.61-1.31 2.92-2.92 2.92-1.61 0-2.92-1.31-2.92-2.92 0-1.61 1.31-2.92 2.92-2.92.22 0 .44.03.65.08l4.16-7.12c-.5-.54-.81-1.25-.81-2.04 0-1.66 1.34-3 3-3s3 1.34 3 3c0 .79-.31 1.5-.81 2.04l4.11 7.05c.23-.05.46-.09.7-.09 1.66 0 3 1.34 3 3s-1.34 3-3 3-3-1.34-3-3c0-.79.31-1.5.81-2.04l-4.11-7.05c-.23.05-.46.09-.7.09-.24 0-.47-.04-.7-.09l-4.15 7.13zM18.96 19c.55 0 1-.45 1-1s-.45-1-1-1-1 .45-1 1 .45 1 1 1zm-8-13c0-.55.45-1 1-1s1 .45 1 1-.45 1-1 1-1-.45-1-1zM4.94 17c-.55 0-1 .45-1 1s.45 1 1 1 1-.45 1-1-.45-1-1-1z" fill="#656565"/></svg>